{
	"asset":{
		"generator":"Khronos glTF Blender I/O v3.6.27",
		"version":"2.0"
	},
	"extensionsUsed":[
		"KHR_materials_specular",
		"KHR_materials_ior"
	],
	"scene":0,
	"scenes":[
		{
			"name":"Scene",
			"nodes":[
				0,
				1,
				2,
				3,
				4,
				5,
				6
			]
		}
	],
	"nodes":[
		{
			"mesh":0,
			"name":"cuerpo_low",
			"rotation":[
				0.7071068286895752,
				0,
				0,
				0.7071068286895752
			]
		},
		{
			"mesh":1,
			"name":"patas_intermedias.013",
			"rotation":[
				0.7071068286895752,
				0,
				0,
				0.7071068286895752
			]
		},
		{
			"mesh":2,
			"name":"patas_intermedias.014",
			"rotation":[
				0.7071068286895752,
				0,
				0,
				0.7071068286895752
			]
		},
		{
			"mesh":3,
			"name":"patas_intermedias.015",
			"rotation":[
				0.7071068286895752,
				0,
				0,
				0.7071068286895752
			]
		},
		{
			"mesh":4,
			"name":"patas_intermedias.016",
			"rotation":[
				0.7071068286895752,
				0,
				0,
				0.7071068286895752
			]
		},
		{
			"mesh":5,
			"name":"patas_intermedias.017",
			"rotation":[
				0.7071068286895752,
				0,
				0,
				0.7071068286895752
			]
		},
		{
			"mesh":6,
			"name":"patas_intermedias.018",
			"rotation":[
				0.7071068286895752,
				0,
				0,
				0.7071068286895752
			]
		}
	],
	"materials":[
		{
			"doubleSided":true,
			"extensions":{
				"KHR_materials_specular":{
					"specularColorFactor":[
						0,
						0,
						0
					]
				},
				"KHR_materials_ior":{
					"ior":1.4500000476837158
				}
			},
			"name":"Material.002",
			"pbrMetallicRoughness":{
				"baseColorFactor":[
					0.800000011920929,
					0.800000011920929,
					0.800000011920929,
					1
				],
				"metallicFactor":0
			}
		},
		{
			"doubleSided":true,
			"extensions":{
				"KHR_materials_specular":{
					"specularColorFactor":[
						0,
						0,
						0
					]
				},
				"KHR_materials_ior":{
					"ior":1.4500000476837158
				}
			},
			"name":"Material.001",
			"pbrMetallicRoughness":{
				"baseColorFactor":[
					0.800000011920929,
					0.800000011920929,
					0.800000011920929,
					1
				],
				"metallicFactor":0
			}
		}
	],
	"meshes":[
		{
			"name":"cuerpo_low",
			"primitives":[
				{
					"attributes":{
						"POSITION":0,
						"NORMAL":1,
						"TEXCOORD_0":2
					},
					"indices":3,
					"material":0
				}
			]
		},
		{
			"name":"patas_intermedias.013",
			"primitives":[
				{
					"attributes":{
						"POSITION":4,
						"NORMAL":5,
						"TEXCOORD_0":6
					},
					"indices":7,
					"material":1
				}
			]
		},
		{
			"name":"patas_intermedias.014",
			"primitives":[
				{
					"attributes":{
						"POSITION":8,
						"NORMAL":9,
						"TEXCOORD_0":10
					},
					"indices":11,
					"material":1
				}
			]
		},
		{
			"name":"patas_intermedias.015",
			"primitives":[
				{
					"attributes":{
						"POSITION":12,
						"NORMAL":13,
						"TEXCOORD_0":14
					},
					"indices":15,
					"material":1
				}
			]
		},
		{
			"name":"patas_intermedias.016",
			"primitives":[
				{
					"attributes":{
						"POSITION":16,
						"NORMAL":17,
						"TEXCOORD_0":18
					},
					"indices":19,
					"material":1
				}
			]
		},
		{
			"name":"patas_intermedias.017",
			"primitives":[
				{
					"attributes":{
						"POSITION":20,
						"NORMAL":21,
						"TEXCOORD_0":22
					},
					"indices":23,
					"material":1
				}
			]
		},
		{
			"name":"patas_intermedias.018",
			"primitives":[
				{
					"attributes":{
						"POSITION":24,
						"NORMAL":25,
						"TEXCOORD_0":26
					},
					"indices":27,
					"material":1
				}
			]
		}
	],
	"accessors":[
		{
			"bufferView":0,
			"componentType":5126,
			"count":2988,
			"max":[
				1.790518045425415,
				0.7771250009536743,
				2.624811887741089
			],
			"min":[
				-1.790518045425415,
				-0.6452969908714294,
				-3.0169460773468018
			],
			"type":"VEC3"
		},
		{
			"bufferView":1,
			"componentType":5126,
			"count":2988,
			"type":"VEC3"
		},
		{
			"bufferView":2,
			"componentType":5126,
			"count":2988,
			"type":"VEC2"
		},
		{
			"bufferView":3,
			"componentType":5123,
			"count":4464,
			"type":"SCALAR"
		},
		{
			"bufferView":4,
			"componentType":5126,
			"count":610,
			"max":[
				1.4962470531463623,
				0.9545930027961731,
				-2.105832099914551
			],
			"min":[
				1.0229820013046265,
				0.21638399362564087,
				-2.62858510017395
			],
			"type":"VEC3"
		},
		{
			"bufferView":5,
			"componentType":5126,
			"count":610,
			"type":"VEC3"
		},
		{
			"bufferView":6,
			"componentType":5126,
			"count":610,
			"type":"VEC2"
		},
		{
			"bufferView":7,
			"componentType":5123,
			"count":894,
			"type":"SCALAR"
		},
		{
			"bufferView":8,
			"componentType":5126,
			"count":288,
			"max":[
				1.2424230575561523,
				0.5311700105667114,
				-1.9446020126342773
			],
			"min":[
				0.8160660266876221,
				0.13514700531959534,
				-2.390044927597046
			],
			"type":"VEC3"
		},
		{
			"bufferView":9,
			"componentType":5126,
			"count":288,
			"type":"VEC3"
		},
		{
			"bufferView":10,
			"componentType":5126,
			"count":288,
			"type":"VEC2"
		},
		{
			"bufferView":11,
			"componentType":5123,
			"count":420,
			"type":"SCALAR"
		},
		{
			"bufferView":12,
			"componentType":5126,
			"count":692,
			"max":[
				0.9638620018959045,
				0.6439070105552673,
				-1.6066319942474365
			],
			"min":[
				0.26799899339675903,
				0.12842899560928345,
				-2.1827518939971924
			],
			"type":"VEC3"
		},
		{
			"bufferView":13,
			"componentType":5126,
			"count":692,
			"type":"VEC3"
		},
		{
			"bufferView":14,
			"componentType":5126,
			"count":692,
			"type":"VEC2"
		},
		{
			"bufferView":15,
			"componentType":5123,
			"count":1020,
			"type":"SCALAR"
		},
		{
			"bufferView":16,
			"componentType":5126,
			"count":610,
			"max":[
				-1.0359339714050293,
				0.9545930027961731,
				-2.105833053588867
			],
			"min":[
				-1.5091999769210815,
				0.21638399362564087,
				-2.62858510017395
			],
			"type":"VEC3"
		},
		{
			"bufferView":17,
			"componentType":5126,
			"count":610,
			"type":"VEC3"
		},
		{
			"bufferView":18,
			"componentType":5126,
			"count":610,
			"type":"VEC2"
		},
		{
			"bufferView":19,
			"componentType":5123,
			"count":894,
			"type":"SCALAR"
		},
		{
			"bufferView":20,
			"componentType":5126,
			"count":288,
			"max":[
				-0.8290190100669861,
				0.5311700105667114,
				-1.9446020126342773
			],
			"min":[
				-1.2553759813308716,
				0.13514700531959534,
				-2.390044927597046
			],
			"type":"VEC3"
		},
		{
			"bufferView":21,
			"componentType":5126,
			"count":288,
			"type":"VEC3"
		},
		{
			"bufferView":22,
			"componentType":5126,
			"count":288,
			"type":"VEC2"
		},
		{
			"bufferView":23,
			"componentType":5123,
			"count":420,
			"type":"SCALAR"
		},
		{
			"bufferView":24,
			"componentType":5126,
			"count":692,
			"max":[
				-0.28095200657844543,
				0.6439070105552673,
				-1.6066319942474365
			],
			"min":[
				-0.9768149852752686,
				0.12842899560928345,
				-2.1827518939971924
			],
			"type":"VEC3"
		},
		{
			"bufferView":25,
			"componentType":5126,
			"count":692,
			"type":"VEC3"
		},
		{
			"bufferView":26,
			"componentType":5126,
			"count":692,
			"type":"VEC2"
		},
		{
			"bufferView":27,
			"componentType":5123,
			"count":1020,
			"type":"SCALAR"
		}
	],
	"bufferViews":[
		{
			"buffer":0,
			"byteLength":35856,
			"byteOffset":0,
			"target":34962
		},
		{
			"buffer":0,
			"byteLength":35856,
			"byteOffset":35856,
			"target":34962
		},
		{
			"buffer":0,
			"byteLength":23904,
			"byteOffset":71712,
			"target":34962
		},
		{
			"buffer":0,
			"byteLength":8928,
			"byteOffset":95616,
			"target":34963
		},
		{
			"buffer":0,
			"byteLength":7320,
			"byteOffset":104544,
			"target":34962
		},
		{
			"buffer":0,
			"byteLength":7320,
			"byteOffset":111864,
			"target":34962
		},
		{
			"buffer":0,
			"byteLength":4880,
			"byteOffset":119184,
			"target":34962
		},
		{
			"buffer":0,
			"byteLength":1788,
			"byteOffset":124064,
			"target":34963
		},
		{
			"buffer":0,
			"byteLength":3456,
			"byteOffset":125852,
			"target":34962
		},
		{
			"buffer":0,
			"byteLength":3456,
			"byteOffset":129308,
			"target":34962
		},
		{
			"buffer":0,
			"byteLength":2304,
			"byteOffset":132764,
			"target":34962
		},
		{
			"buffer":0,
			"byteLength":840,
			"byteOffset":135068,
			"target":34963
		},
		{
			"buffer":0,
			"byteLength":8304,
			"byteOffset":135908,
			"target":34962
		},
		{
			"buffer":0,
			"byteLength":8304,
			"byteOffset":144212,
			"target":34962
		},
		{
			"buffer":0,
			"byteLength":5536,
			"byteOffset":152516,
			"target":34962
		},
		{
			"buffer":0,
			"byteLength":2040,
			"byteOffset":158052,
			"target":34963
		},
		{
			"buffer":0,
			"byteLength":7320,
			"byteOffset":160092,
			"target":34962
		},
		{
			"buffer":0,
			"byteLength":7320,
			"byteOffset":167412,
			"target":34962
		},
		{
			"buffer":0,
			"byteLength":4880,
			"byteOffset":174732,
			"target":34962
		},
		{
			"buffer":0,
			"byteLength":1788,
			"byteOffset":179612,
			"target":34963
		},
		{
			"buffer":0,
			"byteLength":3456,
			"byteOffset":181400,
			"target":34962
		},
		{
			"buffer":0,
			"byteLength":3456,
			"byteOffset":184856,
			"target":34962
		},
		{
			"buffer":0,
			"byteLength":2304,
			"byteOffset":188312,
			"target":34962
		},
		{
			"buffer":0,
			"byteLength":840,
			"byteOffset":190616,
			"target":34963
		},
		{
			"buffer":0,
			"byteLength":8304,
			"byteOffset":191456,
			"target":34962
		},
		{
			"buffer":0,
			"byteLength":8304,
			"byteOffset":199760,
			"target":34962
		},
		{
			"buffer":0,
			"byteLength":5536,
			"byteOffset":208064,
			"target":34962
		},
		{
			"buffer":0,
			"byteLength":2040,
			"byteOffset":213600,
			"target":34963
		}
	],
	"buffers":[
		{
			"byteLength":215640,
			"uri":"piojo_body.bin"
		}
	]
}
