{
	"asset":{
		"generator":"Khronos glTF Blender I/O v3.6.27",
		"version":"2.0"
	},
	"extensionsUsed":[
		"KHR_materials_specular",
		"KHR_materials_ior"
	],
	"scene":0,
	"scenes":[
		{
			"name":"Scene",
			"nodes":[
				0
			]
		}
	],
	"nodes":[
		{
			"mesh":0,
			"name":"patas_intermedias.007",
			"rotation":[
				0.7071068286895752,
				0,
				0,
				0.7071068286895752
			]
		}
	],
	"materials":[
		{
			"doubleSided":true,
			"extensions":{
				"KHR_materials_specular":{
					"specularColorFactor":[
						0,
						0,
						0
					]
				},
				"KHR_materials_ior":{
					"ior":1.4500000476837158
				}
			},
			"name":"Material.001",
			"pbrMetallicRoughness":{
				"baseColorFactor":[
					0.800000011920929,
					0.800000011920929,
					0.800000011920929,
					1
				],
				"metallicFactor":0
			}
		}
	],
	"meshes":[
		{
			"name":"patas_intermedias.007",
			"primitives":[
				{
					"attributes":{
						"POSITION":0,
						"NORMAL":1,
						"TEXCOORD_0":2
					},
					"indices":3,
					"material":0
				}
			]
		}
	],
	"accessors":[
		{
			"bufferView":0,
			"componentType":5126,
			"count":610,
			"max":[
				3.1167190074920654,
				1.3418630361557007,
				-0.7286019921302795
			],
			"min":[
				2.20747709274292,
				0.00595200015231967,
				-1.4813859462738037
			],
			"type":"VEC3"
		},
		{
			"bufferView":1,
			"componentType":5126,
			"count":610,
			"type":"VEC3"
		},
		{
			"bufferView":2,
			"componentType":5126,
			"count":610,
			"type":"VEC2"
		},
		{
			"bufferView":3,
			"componentType":5123,
			"count":894,
			"type":"SCALAR"
		}
	],
	"bufferViews":[
		{
			"buffer":0,
			"byteLength":7320,
			"byteOffset":0,
			"target":34962
		},
		{
			"buffer":0,
			"byteLength":7320,
			"byteOffset":7320,
			"target":34962
		},
		{
			"buffer":0,
			"byteLength":4880,
			"byteOffset":14640,
			"target":34962
		},
		{
			"buffer":0,
			"byteLength":1788,
			"byteOffset":19520,
			"target":34963
		}
	],
	"buffers":[
		{
			"byteLength":21308,
			"uri":"piojo_pinzaD3.bin"
		}
	]
}
